<?xml version="1.0" encoding="iso-8859-1"?>
<!-- Generator: Adobe Illustrator 19.0.0, SVG Export Plug-In . SVG Version: 6.00 Build 0)  -->
<svg version="1.1" id="Capa_1" xmlns="http://www.w3.org/2000/svg" xmlns:xlink="http://www.w3.org/1999/xlink" x="0px" y="0px"
	 viewBox="0 0 64 64" style="enable-background:new 0 0 64 64;" xml:space="preserve">
<path fill="#7a7a7a" opacity="0.1" d="M35.146,24h2v19h-2V24z M35.146,12h2v2h-2V12z M35.146,16h2v2h-2V16z M35.146,20h2v2h-2V20z M35.146,0h2v10h-2V0z
	 M33.299,42.978l-1.848,0.766l-7.273-17.551l1.848-0.766L33.299,42.978z M22.201,16.189l-1.848,0.766l-0.766-1.849l1.848-0.766
	L22.201,16.189z M23.731,19.884l-1.848,0.766l-0.766-1.848l1.848-0.766L23.731,19.884z M25.262,23.579l-1.848,0.766l-0.766-1.848
	l1.848-0.766L25.262,23.579z M20.669,12.491l-1.848,0.765l-3.827-9.238l1.848-0.765L20.669,12.491z M48.115,26.194l-7.273,17.551
	l-1.848-0.766l7.273-17.551L48.115,26.194z M52.705,15.105l-0.766,1.849l-1.848-0.766l0.766-1.849L52.705,15.105z M51.178,18.804
	l-0.766,1.848l-1.848-0.766l0.766-1.848L51.178,18.804z M49.646,22.5l-0.766,1.848l-1.848-0.766l0.766-1.848L49.646,22.5z
	 M57.299,4.021l-3.828,9.237l-1.848-0.766l3.828-9.237L57.299,4.021z M58.086,32.975L44.651,46.41l-1.414-1.414l13.435-13.435
	L58.086,32.975z M63.743,27.319l-1.414,1.414l-1.414-1.414l1.414-1.414L63.743,27.319z M60.915,30.146l-1.414,1.414l-1.414-1.414
	l1.414-1.414L60.915,30.146z M30.056,44.995l-1.414,1.414L15.207,32.974l1.414-1.414L30.056,44.995z M9.55,24.489l-1.414,1.414
	l-1.414-1.414l1.414-1.414L9.55,24.489z M12.378,27.318l-1.414,1.414L9.55,27.318l1.414-1.414L12.378,27.318z M15.208,30.146
	l-1.414,1.414l-1.414-1.414l1.414-1.414L15.208,30.146z M6.722,21.662l-1.414,1.414l-4.618-4.618l1.414-1.414L6.722,21.662z
	 M17.146,54h2v2h-2V54z M21.146,54h2v2h-2V54z M25.146,54h2v2h-2V54z M13.146,54h2v2h-2V54z M17.146,58h2v2h-2V58z M21.146,58h2v2
	h-2V58z M25.146,58h2v2h-2V58z M13.146,58h2v2h-2V58z M17.146,62h2v2h-2V62z M21.146,62h2v2h-2V62z M25.146,62h2v2h-2V62z
	 M29.146,58h2v2h-2V58z M29.146,62h2v2h-2V62z M33.146,62h2v2h-2V62z M13.146,62h2v2h-2V62z M9.146,58h2v2h-2V58z M9.146,62h2v2h-2
	V62z M5.146,62h2v2h-2V62z M49.146,54h2v2h-2V54z M53.146,54h2v2h-2V54z M57.146,54h2v2h-2V54z M45.146,54h2v2h-2V54z M49.146,58h2
	v2h-2V58z M53.146,58h2v2h-2V58z M57.146,58h2v2h-2V58z M45.146,58h2v2h-2V58z M49.146,62h2v2h-2V62z M53.146,62h2v2h-2V62z
	 M57.146,62h2v2h-2V62z M61.146,58h2v2h-2V58z M61.146,54h2v2h-2V54z M61.146,62h2v2h-2V62z M45.146,62h2v2h-2V62z M41.146,58h2v2
	h-2V58z M41.146,62h2v2h-2V62z M37.146,62h2v2h-2V62z M63.854,40.707l-1.414-1.414l-4.293,4.293l-2.793-2.793
	c-0.391-0.391-1.023-0.391-1.414,0l-9.447,9.447c-1.43-3.124-4.589-5.24-8.141-5.24c-3.694,0-6.915,2.253-8.272,5.519l-7.226-7.226
	c-0.391-0.391-1.023-0.391-1.414,0l-1.793,1.793l-6.793-6.793c-0.391-0.391-1.023-0.391-1.414,0l-6.293,6.293l-1.293-1.293
	L0.44,44.707L9.233,53.5l-7.5,7.5H0.146v2h2c0.265,0,0.519-0.105,0.707-0.293l17.293-17.293l7.335,7.335
	c-0.006,0.044-0.017,0.087-0.022,0.131l0.174,0.021l7.805,7.805c0.391,0.391,1.023,0.391,1.414,0l17.794-17.792l7.793,7.793
	l1.414-1.414L59.561,45L63.854,40.707z M4.56,46l5.586-5.586l6.086,6.086l-5.586,5.586L4.56,46z M36.146,58.586l-6.492-6.492
	C30.474,49.13,33.188,47,36.352,47c3.023,0,5.663,1.979,6.587,4.794L36.146,58.586z"/>
<g>
</g>
<g>
</g>
<g>
</g>
<g>
</g>
<g>
</g>
<g>
</g>
<g>
</g>
<g>
</g>
<g>
</g>
<g>
</g>
<g>
</g>
<g>
</g>
<g>
</g>
<g>
</g>
<g>
</g>
</svg>
