<?xml version="1.0" standalone="no"?>
<!DOCTYPE svg PUBLIC "-//W3C//DTD SVG 20010904//EN"
 "http://www.w3.org/TR/2001/REC-SVG-20010904/DTD/svg10.dtd">
<svg version="1.0" xmlns="http://www.w3.org/2000/svg"
 width="1024.000000pt" height="720.000000pt" viewBox="0 0 1024.000000 720.000000"
 preserveAspectRatio="xMidYMid meet">

<g transform="translate(0.000000,720.000000) scale(0.100000,-0.100000)"
fill="#ffffff" stroke="none">
<path d="M8393 5421 c-94 -32 -161 -99 -188 -187 -17 -56 -19 -122 -6 -156 5
-13 12 -36 16 -52 9 -42 99 -132 154 -153 25 -10 49 -17 53 -16 4 2 5 -3 2
-11 -3 -7 -24 -17 -47 -20 -23 -4 -44 -10 -47 -14 -3 -4 -36 -22 -75 -41 -63
-31 -152 -85 -165 -101 -19 -22 -89 -68 -94 -62 -4 4 -6 2 -4 -3 3 -10 -109
-125 -115 -118 -2 2 -10 -4 -18 -14 -12 -15 -12 -16 1 -8 8 4 -6 -14 -32 -41
-27 -28 -48 -53 -48 -56 0 -4 -18 -25 -41 -49 -39 -41 -40 -41 -57 -22 -40 44
-118 200 -124 245 -3 28 34 78 58 78 7 0 27 13 44 29 18 16 44 35 58 42 15 8
45 26 66 41 21 16 45 28 53 28 7 0 13 5 13 11 0 24 -66 4 -208 -62 -58 -27
-92 -36 -92 -24 0 21 59 116 86 139 106 88 308 114 519 66 28 -7 63 -13 79
-15 15 -3 37 -7 47 -10 11 -4 19 -2 19 5 0 7 -9 14 -20 17 -11 3 -20 9 -20 13
0 5 -13 11 -30 15 -16 4 -30 10 -30 13 0 11 -89 49 -170 72 -41 12 -88 27
-103 32 -34 13 -276 16 -332 5 l-40 -8 25 17 c34 25 48 42 70 89 19 41 19 54
6 117 -10 46 -68 102 -123 118 -104 32 -213 -58 -213 -175 0 -54 33 -125 61
-132 10 -3 19 -9 19 -13 0 -12 79 -32 100 -25 37 12 20 -12 -22 -31 -23 -10
-64 -36 -90 -56 -31 -25 -48 -33 -52 -25 -3 7 -5 6 -4 -3 3 -20 -24 -60 -40
-60 -7 0 -11 -4 -8 -8 3 -5 -3 -31 -14 -59 -19 -52 -29 -204 -16 -254 7 -23 0
-31 -81 -92 -48 -36 -100 -76 -115 -89 -14 -13 -35 -30 -45 -39 -52 -45 -243
-260 -243 -274 0 -3 -9 -15 -20 -27 -10 -12 -17 -25 -14 -30 3 -4 1 -8 -3 -8
-5 0 -20 -21 -33 -47 -14 -27 -27 -50 -30 -53 -5 -5 -47 -99 -60 -135 -4 -11
-13 -36 -19 -55 -23 -65 -42 -213 -37 -290 7 -102 20 -181 33 -205 6 -11 19
-38 29 -60 33 -79 193 -275 224 -275 5 0 34 -18 65 -39 31 -22 69 -43 85 -46
16 -3 34 -13 41 -22 14 -16 52 -34 84 -38 11 -2 52 -12 90 -23 118 -34 323
-56 460 -48 182 10 393 41 480 71 22 7 67 21 100 30 33 9 69 20 80 25 37 16
88 30 92 26 4 -4 -69 -75 -141 -137 -75 -64 -87 -77 -77 -83 14 -9 54 5 161
57 113 56 139 73 207 135 13 12 28 22 33 22 13 0 130 114 130 127 0 7 9 15 20
18 11 3 20 11 20 16 0 11 25 39 35 39 3 0 41 27 83 60 43 33 86 60 96 60 15 0
169 149 316 306 77 82 215 308 208 340 -2 11 -26 -7 -80 -60 -96 -94 -311
-260 -328 -254 -8 3 5 41 41 123 11 26 45 131 55 170 12 48 13 57 24 120 23
132 28 182 29 311 2 162 -15 236 -90 393 -52 106 -104 170 -194 237 -78 58
-185 89 -294 85 l-54 -1 71 74 c66 69 71 78 77 131 15 120 -6 197 -74 268 -43
46 -75 64 -148 83 -68 18 -85 17 -150 -5z m172 -917 c57 -20 149 -87 194 -141
16 -20 49 -82 73 -137 l42 -101 1 -180 c0 -214 -3 -245 -45 -395 -60 -215 -89
-290 -124 -317 -37 -30 -191 -89 -291 -112 -262 -61 -585 -73 -820 -31 -72 13
-175 49 -175 61 0 5 -9 9 -19 9 -20 0 -64 21 -153 73 -61 36 -198 218 -198
263 0 8 -7 31 -16 52 -20 47 -24 273 -5 296 7 8 10 24 6 36 -4 12 -2 20 5 20
7 0 9 8 5 20 -4 12 -2 20 5 20 7 0 10 6 7 14 -3 8 -2 16 2 18 9 4 61 112 61
128 0 6 5 8 10 5 6 -3 10 0 10 8 0 15 111 174 153 220 14 15 30 27 35 27 6 0
17 -16 27 -36 9 -20 55 -75 102 -123 115 -117 123 -129 117 -177 l-6 -39 28
30 27 29 41 -23 c103 -59 273 -141 292 -141 11 0 24 -4 30 -9 17 -17 147 -42
244 -48 94 -6 204 9 215 28 8 12 -36 28 -108 40 -32 5 -82 21 -112 34 -29 14
-60 25 -67 25 -7 1 -31 9 -53 20 -22 11 -44 19 -49 20 -5 0 -17 6 -25 14 -9 8
-35 25 -57 38 -106 59 -194 136 -194 168 0 10 26 39 61 67 34 26 69 55 78 63
53 50 268 160 341 176 83 17 238 11 305 -12z"/>
<path d="M7460 3901 c-61 -9 -132 -50 -189 -110 -19 -20 -34 -37 -33 -38 7
-10 0 -23 -12 -23 -9 0 -16 -19 -20 -60 -4 -34 -11 -58 -17 -55 -12 8 -12 -3
7 -93 12 -58 27 -93 59 -142 53 -79 65 -90 131 -118 83 -35 123 -37 223 -12
86 21 92 25 143 78 73 77 102 140 103 221 1 85 -13 134 -57 202 -76 117 -195
169 -338 150z"/>
<path d="M7280 3250 c0 -5 5 -10 10 -10 6 0 10 5 10 10 0 6 -4 10 -10 10 -5 0
-10 -4 -10 -10z"/>
<path d="M459 4343 c-5 -13 -14 -53 -20 -90 -6 -38 -19 -115 -30 -173 -10 -58
-26 -152 -34 -210 -9 -58 -21 -130 -27 -160 -6 -30 -12 -68 -15 -85 -2 -16
-13 -75 -23 -130 -10 -55 -23 -129 -29 -165 -6 -36 -15 -90 -21 -120 -6 -30
-17 -105 -25 -167 -7 -62 -16 -121 -20 -133 -14 -45 5 -50 195 -50 l178 0 20
93 c27 121 38 189 53 324 7 62 15 110 18 109 3 -2 7 21 8 53 1 31 9 76 17 100
9 24 16 59 16 77 0 52 15 41 40 -28 12 -35 37 -96 56 -136 19 -41 34 -79 34
-86 0 -7 3 -16 6 -19 4 -4 15 -28 24 -54 24 -66 75 -193 116 -286 19 -43 32
-82 29 -87 -4 -6 -1 -10 6 -10 7 0 10 -3 6 -6 -3 -3 2 -14 11 -25 14 -16 30
-19 93 -19 l77 0 15 33 c8 17 29 66 47 107 18 41 40 93 50 115 10 22 40 99 66
170 26 72 51 135 54 140 6 8 53 118 95 220 6 15 11 3 21 -50 7 -38 17 -97 23
-130 6 -33 11 -83 11 -112 0 -28 4 -62 9 -75 5 -13 12 -65 16 -117 9 -114 9
-119 18 -127 4 -4 7 -25 7 -46 0 -22 5 -59 11 -84 l11 -44 197 2 196 3 -3 60
c-2 33 -10 87 -18 120 -7 33 -18 103 -24 155 -6 52 -17 124 -25 160 -19 90
-44 254 -61 390 -12 104 -21 170 -54 400 -20 142 -29 184 -43 198 -11 10 -53
13 -184 14 -94 0 -179 -3 -189 -6 -12 -3 -28 -27 -39 -56 -11 -27 -23 -50 -27
-50 -4 0 -7 -3 -6 -7 3 -11 -13 -74 -23 -93 -4 -8 -24 -53 -44 -100 -20 -47
-40 -94 -45 -105 -5 -11 -14 -37 -20 -58 -7 -21 -16 -34 -22 -31 -6 4 -8 -1
-4 -14 4 -12 1 -26 -8 -35 -8 -8 -13 -17 -10 -20 3 -3 -4 -24 -15 -48 -10 -24
-23 -55 -27 -69 -8 -29 -31 -53 -42 -46 -5 3 -22 43 -37 88 -15 46 -35 93 -42
105 -8 12 -12 26 -9 32 3 5 -1 11 -9 15 -8 3 -15 14 -15 24 0 10 -12 47 -27
83 -14 35 -44 114 -65 174 -61 169 -74 205 -82 212 -4 4 -90 7 -193 8 -183 0
-185 0 -194 -22z"/>
<path d="M4583 4355 c-11 -8 -13 -143 -16 -750 l-2 -740 55 -5 c30 -3 206 -2
390 1 350 5 369 8 480 56 65 29 189 156 190 196 0 9 4 17 9 17 8 0 14 26 26
128 10 84 -42 243 -100 307 -23 26 -117 84 -146 90 l-30 7 34 33 c20 19 48 60
64 92 26 54 28 66 28 178 -1 86 -5 130 -17 155 -8 19 -20 48 -27 63 -15 37
-91 106 -149 135 -34 16 -77 25 -157 32 -157 14 -615 17 -632 5z m492 -330
c46 -11 68 -23 93 -49 45 -50 40 -100 -16 -159 -25 -26 -31 -28 -105 -26 l-78
2 7 116 c3 64 8 119 11 124 6 10 18 9 88 -8z m96 -577 c3 -5 10 -8 15 -7 5 2
24 -1 42 -5 62 -15 92 -108 57 -175 -12 -24 -63 -58 -99 -66 -6 -1 -18 -5 -27
-9 -9 -4 -51 -6 -95 -4 l-79 3 -3 126 c-3 159 -3 160 105 152 43 -3 81 -10 84
-15z"/>
<path d="M2747 4345 c-4 -9 -7 -342 -7 -739 0 -548 3 -725 12 -734 8 -8 67
-12 199 -12 161 0 188 2 193 16 3 9 6 119 6 245 0 176 3 229 13 230 360 16
384 18 450 44 127 52 203 133 243 260 15 47 19 90 19 200 0 130 -2 145 -28
213 -36 90 -105 169 -191 216 -113 63 -142 67 -542 73 -334 5 -361 4 -367 -12z
m644 -346 c55 -28 63 -42 67 -138 4 -86 4 -88 -26 -122 -37 -42 -97 -59 -208
-59 l-74 0 0 173 0 174 103 -5 c70 -3 113 -10 138 -23z"/>
<path d="M2325 3221 c-11 -4 -29 -11 -41 -15 -11 -4 -35 -29 -52 -56 -39 -60
-43 -126 -11 -198 32 -73 67 -95 147 -94 85 0 113 12 148 57 33 44 44 134 24
196 -25 75 -147 137 -215 110z"/>
<path d="M6011 3218 c-48 -13 -75 -33 -106 -79 -28 -40 -29 -61 -11 -181 4
-28 27 -48 85 -76 67 -32 115 -32 168 -2 68 38 103 129 78 202 -19 56 -65 120
-82 114 -8 -3 -16 1 -20 10 -4 11 -13 13 -34 9 -18 -4 -29 -2 -29 4 0 13 -3
13 -49 -1z"/>
<path d="M4121 3202 c-58 -29 -94 -83 -99 -151 -5 -74 16 -122 72 -163 39 -28
46 -30 120 -26 76 3 79 5 108 38 16 19 36 50 44 69 15 37 19 111 5 111 -5 0
-11 12 -15 28 -19 87 -147 138 -235 94z"/>
<path d="M2050 2260 l0 -190 30 0 30 0 0 190 0 190 -30 0 -30 0 0 -190z"/>
<path d="M337 2419 c-38 -29 -50 -80 -46 -193 4 -96 4 -98 37 -127 27 -24 41
-29 70 -27 30 2 38 7 40 26 3 20 0 22 -20 17 -16 -4 -32 0 -49 14 -23 18 -24
25 -24 119 0 93 2 102 25 127 18 19 31 24 47 20 19 -4 23 -1 23 20 0 22 -4 25
-39 25 -23 0 -48 -8 -64 -21z"/>
<path d="M8391 2421 c-47 -47 -40 -93 24 -179 52 -68 58 -106 21 -123 -17 -8
-29 -8 -45 0 -19 10 -21 9 -21 -13 0 -43 76 -51 115 -11 39 39 35 95 -13 159
-66 87 -72 105 -46 131 12 11 25 14 46 10 27 -6 29 -5 26 17 -2 19 -10 23 -45
26 -32 2 -47 -2 -62 -17z"/>
<path d="M3248 2390 c-16 -40 -16 -40 6 -40 14 0 34 15 55 40 l32 40 -38 0
c-35 0 -39 -4 -55 -40z"/>
<path d="M5146 2258 c-20 -95 -36 -176 -36 -180 0 -5 11 -8 24 -8 19 0 25 7
30 35 6 32 10 35 40 35 35 0 46 -13 46 -51 0 -14 7 -19 30 -19 19 0 28 4 25
13 -2 6 -18 77 -35 157 -17 80 -34 155 -37 168 -3 14 -13 22 -27 22 -21 0 -25
-12 -60 -172z m79 -27 c7 -50 7 -51 -20 -51 -26 0 -27 2 -21 33 4 17 10 52 13
77 6 41 7 43 14 18 4 -15 10 -50 14 -77z"/>
<path d="M7188 2390 c-16 -40 -16 -40 6 -40 14 0 34 15 55 40 l32 40 -38 0
c-35 0 -39 -4 -55 -40z"/>
<path d="M4481 2384 c-25 -32 -26 -52 -6 -100 14 -35 14 -37 -10 -66 -35 -42
-35 -99 1 -127 29 -23 74 -27 104 -11 13 7 21 7 25 0 3 -5 20 -10 36 -10 l30
0 -17 28 c-15 26 -15 31 0 59 14 28 14 32 0 44 -13 11 -18 10 -25 -4 -15 -25
-28 -21 -45 16 -15 32 -15 35 10 72 14 21 26 48 26 61 0 62 -90 87 -129 38z
m74 -25 c8 -12 -13 -69 -25 -69 -10 0 -20 26 -20 50 0 25 33 39 45 19z m5
-225 c0 -15 -26 -25 -45 -18 -21 9 -30 51 -14 70 12 14 16 13 36 -12 13 -16
23 -34 23 -40z"/>
<path d="M2310 2355 c0 -24 -5 -35 -15 -35 -8 0 -15 -9 -15 -20 0 -11 7 -20
15 -20 12 0 15 -18 15 -105 l0 -105 30 0 30 0 0 105 c0 87 3 105 15 105 8 0
15 9 15 20 0 11 -7 20 -15 20 -10 0 -15 11 -15 35 0 32 -2 35 -30 35 -28 0
-30 -3 -30 -35z"/>
<path d="M664 2299 c-28 -31 -28 -177 0 -208 24 -27 76 -28 107 -2 22 18 24
27 24 106 0 79 -2 88 -24 106 -31 26 -83 25 -107 -2z m80 -68 c10 -47 -2 -112
-21 -119 -28 -9 -45 107 -22 149 16 30 33 18 43 -30z"/>
<path d="M1000 2195 l0 -125 25 0 c25 0 25 0 25 94 0 74 3 96 16 107 29 24 44
-14 44 -113 0 -87 0 -88 25 -88 l25 0 0 103 c0 77 -4 108 -16 125 -17 24 -62
30 -82 10 -9 -9 -12 -9 -12 0 0 7 -11 12 -25 12 l-25 0 0 -125z"/>
<path d="M1387 2302 c-29 -31 -21 -70 23 -118 22 -24 40 -48 40 -53 0 -14 -29
-22 -57 -15 -22 6 -24 4 -21 -17 3 -21 8 -24 47 -24 36 0 47 5 64 27 20 27 20
29 4 62 -9 19 -28 43 -42 52 -17 11 -25 24 -23 38 2 17 9 21 36 18 30 -2 33 0
30 20 -2 19 -10 24 -44 26 -29 2 -45 -2 -57 -16z"/>
<path d="M1692 2209 c3 -96 6 -113 22 -125 21 -15 83 -19 103 -6 22 14 33 63
33 153 0 88 0 89 -25 89 -25 0 -25 -1 -25 -88 0 -99 -15 -137 -44 -113 -13 11
-16 33 -16 107 l0 94 -26 0 -26 0 4 -111z"/>
<path d="M2604 2299 c-15 -17 -19 -37 -19 -104 0 -67 4 -87 19 -104 24 -27 76
-28 107 -2 22 18 24 27 24 106 0 79 -2 88 -24 106 -31 26 -83 25 -107 -2z m80
-68 c10 -47 -2 -112 -21 -119 -28 -9 -45 107 -22 149 16 30 33 18 43 -30z"/>
<path d="M2940 2195 l0 -125 25 0 c25 0 25 2 25 78 0 98 6 119 36 126 15 4 24
14 24 26 0 24 -17 26 -42 3 -17 -15 -18 -15 -18 0 0 11 -8 17 -25 17 l-25 0 0
-125z"/>
<path d="M3240 2195 l0 -125 30 0 30 0 0 125 0 125 -30 0 -30 0 0 -125z"/>
<path d="M3519 2303 c-18 -20 -25 -158 -10 -195 12 -32 55 -47 83 -29 11 7 18
7 18 1 0 -5 11 -10 25 -10 l25 0 0 125 0 125 -25 0 c-14 0 -25 -5 -25 -12 0
-9 -3 -9 -12 0 -17 17 -63 15 -79 -5z m82 -50 c12 -31 5 -121 -11 -137 -16
-16 -30 6 -36 60 -6 50 7 104 26 104 6 0 15 -12 21 -27z"/>
<path d="M3887 2302 c-29 -31 -21 -70 23 -118 22 -24 40 -48 40 -53 0 -14 -29
-22 -57 -15 -22 6 -24 4 -21 -17 3 -21 8 -24 47 -24 36 0 47 5 64 27 20 27 20
29 4 62 -9 19 -28 43 -42 52 -17 11 -25 24 -23 38 2 17 9 21 36 18 30 -2 33 0
30 20 -2 19 -10 24 -44 26 -29 2 -45 -2 -57 -16z"/>
<path d="M5527 2302 c-29 -31 -21 -70 23 -118 22 -24 40 -48 40 -53 0 -14 -29
-22 -57 -15 -22 6 -24 4 -21 -17 3 -21 8 -24 47 -24 36 0 47 5 64 27 20 27 20
29 4 62 -9 19 -28 43 -42 52 -17 11 -25 24 -23 38 2 17 9 21 36 18 30 -2 33 0
30 20 -2 19 -10 24 -44 26 -29 2 -45 -2 -57 -16z"/>
<path d="M5862 2299 c-46 -49 -40 -193 8 -219 50 -27 101 -4 114 53 6 24 3 27
-18 27 -17 0 -26 -7 -30 -26 -10 -40 -40 -27 -44 19 l-3 37 52 0 52 0 -6 45
c-2 25 -13 55 -22 65 -24 27 -78 26 -103 -1z m66 -21 c22 -22 14 -48 -13 -48
-20 0 -25 5 -25 23 0 36 16 47 38 25z"/>
<path d="M6207 2302 c-29 -31 -21 -70 23 -118 22 -24 40 -48 40 -53 0 -14 -29
-22 -57 -15 -22 6 -24 4 -21 -17 3 -21 8 -24 47 -24 36 0 47 5 64 27 20 27 20
29 4 62 -9 19 -28 43 -42 52 -17 11 -25 24 -23 38 2 17 9 21 36 18 30 -2 33 0
30 20 -2 19 -10 24 -44 26 -29 2 -45 -2 -57 -16z"/>
<path d="M6534 2299 c-15 -17 -19 -37 -19 -104 0 -67 4 -87 19 -104 24 -27 76
-28 107 -2 22 18 24 27 24 106 0 79 -2 88 -24 106 -31 26 -83 25 -107 -2z m80
-68 c10 -47 -2 -112 -21 -119 -28 -9 -45 107 -22 149 16 30 33 18 43 -30z"/>
<path d="M6870 2195 l0 -125 25 0 c25 0 25 2 25 78 0 98 6 119 36 126 15 4 24
14 24 26 0 24 -17 26 -42 3 -17 -15 -18 -15 -18 0 0 11 -8 17 -25 17 l-25 0 0
-125z"/>
<path d="M7180 2195 l0 -125 30 0 30 0 0 125 0 125 -30 0 -30 0 0 -125z"/>
<path d="M7449 2303 c-18 -20 -25 -158 -10 -195 12 -32 55 -47 83 -29 11 7 18
7 18 1 0 -5 11 -10 25 -10 l25 0 0 125 0 125 -25 0 c-14 0 -25 -5 -25 -12 0
-9 -3 -9 -12 0 -17 17 -63 15 -79 -5z m82 -50 c12 -31 5 -121 -11 -137 -16
-16 -30 6 -36 60 -6 50 7 104 26 104 6 0 15 -12 21 -27z"/>
<path d="M7817 2302 c-29 -31 -21 -70 23 -118 22 -24 40 -48 40 -53 0 -14 -29
-22 -57 -15 -22 6 -24 4 -21 -17 3 -21 8 -24 47 -24 36 0 47 5 64 27 20 27 20
29 4 62 -9 19 -28 43 -42 52 -17 11 -25 24 -23 38 2 17 9 21 36 18 30 -2 33 0
30 20 -2 19 -10 24 -44 26 -29 2 -45 -2 -57 -16z"/>
<path d="M8710 2139 l0 -179 30 0 30 0 0 67 c0 52 3 64 12 55 19 -19 55 -14
72 10 22 30 22 175 1 205 -12 17 -25 21 -80 21 l-65 1 0 -180z m100 122 c16
-30 13 -126 -5 -141 -8 -6 -19 -9 -25 -5 -11 7 -14 147 -3 158 11 12 22 8 33
-12z"/>
<path d="M9089 2303 c-18 -20 -25 -158 -10 -195 12 -32 55 -47 83 -29 11 7 18
7 18 1 0 -5 11 -10 25 -10 l25 0 0 125 0 125 -25 0 c-14 0 -25 -5 -25 -12 0
-9 -3 -9 -12 0 -17 17 -63 15 -79 -5z m82 -50 c12 -31 5 -121 -11 -137 -16
-16 -30 6 -36 60 -6 50 7 104 26 104 6 0 15 -12 21 -27z"/>
<path d="M9434 2116 c-10 -26 4 -48 28 -44 17 2 23 10 23 28 0 18 -6 26 -23
28 -13 2 -25 -3 -28 -12z"/>
</g>
</svg>
