<?xml version="1.0" encoding="UTF-8" standalone="no"?>
<!-- Created with Inkscape (http://www.inkscape.org/) -->

<svg
   xmlns:dc="http://purl.org/dc/elements/1.1/"
   xmlns:cc="http://creativecommons.org/ns#"
   xmlns:rdf="http://www.w3.org/1999/02/22-rdf-syntax-ns#"
   xmlns:svg="http://www.w3.org/2000/svg"
   xmlns="http://www.w3.org/2000/svg"
   xmlns:sodipodi="http://sodipodi.sourceforge.net/DTD/sodipodi-0.dtd"
   xmlns:inkscape="http://www.inkscape.org/namespaces/inkscape"
   width="244.59241"
   height="279.90344"
   id="svg3825"
   version="1.1"
   inkscape:version="0.48.2 r9819"
   sodipodi:docname="cmc.svg">
  <defs
     id="defs3827" />
  <sodipodi:namedview
     id="base"
     pagecolor="#ffffff"
     bordercolor="#666666"
     borderopacity="1.0"
     inkscape:pageopacity="0.0"
     inkscape:pageshadow="2"
     inkscape:zoom="1.2318236"
     inkscape:cx="121.95156"
     inkscape:cy="121.97811"
     inkscape:document-units="px"
     inkscape:current-layer="layer1"
     showgrid="true"
     showborder="false"
     inkscape:showpageshadow="false"
     inkscape:window-width="1366"
     inkscape:window-height="746"
     inkscape:window-x="-8"
     inkscape:window-y="-8"
     inkscape:window-maximized="1"
     inkscape:snap-global="false"
     fit-margin-top="0"
     fit-margin-left="0"
     fit-margin-right="0"
     fit-margin-bottom="0">
    <inkscape:grid
       type="xygrid"
       id="grid3833"
       empspacing="5"
       visible="true"
       enabled="true"
       snapvisiblegridlinesonly="true"
       spacingx="10px"
       spacingy="10px" />
  </sodipodi:namedview>
  <metadata
     id="metadata3830">
    <rdf:RDF>
      <cc:Work
         rdf:about="">
        <dc:format>image/svg+xml</dc:format>
        <dc:type
           rdf:resource="http://purl.org/dc/dcmitype/StillImage" />
        <dc:title></dc:title>
      </cc:Work>
    </rdf:RDF>
  </metadata>
  <g
     inkscape:label="Layer 1"
     inkscape:groupmode="layer"
     id="layer1"
     transform="translate(1109.8247,-761.65275)">
    <g
       id="g5875"
       transform="translate(275.20175,2.4354137)">
      <path
         style="fill:#00956f"
         d="m -1263.9341,1039.1152 c -7.425,-0.039 -16.65,-0.6475 -20.5,-1.3527 -3.85,-0.7053 -10.3466,-2.2838 -14.437,-3.5078 -4.0903,-1.224 -11.0861,-3.9592 -15.5462,-6.0782 -4.46,-2.1189 -11.5793,-6.118 -15.8206,-8.8867 -4.2413,-2.7687 -11.6043,-8.7534 -16.3623,-13.2993 -4.758,-4.5459 -11.1958,-11.67865 -14.3062,-15.85061 -3.1103,-4.17196 -7.7338,-11.60987 -10.2742,-16.52869 -2.5405,-4.91881 -5.7742,-12.38449 -7.1861,-16.59039 -1.4119,-4.2059 -3.3199,-10.71799 -4.2401,-14.47131 l -1.6732,-6.82422 -0.3725,-88.25397 -0.3726,-88.25397 122.2955,0.25397 122.2955,0.25397 -0.012,84.5 -0.012,84.5 -1.7769,9.5 c -0.9772,5.225 -2.9477,13.1 -4.3787,17.5 -1.4311,4.4 -4.1623,11.15 -6.0696,15 -1.9072,3.85 -5.9937,10.825 -9.0812,15.5 -3.0875,4.675 -9.6761,12.56252 -14.6414,17.52782 -4.9654,4.9653 -12.9028,11.6027 -17.6389,14.7498 -4.7361,3.147 -12.3886,7.4921 -17.0055,9.6557 -4.617,2.1635 -12.4403,5.1062 -17.3852,6.5391 -4.9449,1.433 -11.9174,3.029 -15.4945,3.5467 -3.5771,0.5177 -12.5788,0.9096 -20.0038,0.8708 z m 6.5,-3.5867 c 4.95,-0.2672 13.32,-1.3395 18.6001,-2.3829 5.28,-1.0434 12.705,-3.0645 16.5,-4.4913 3.7949,-1.4269 10.4835,-4.4572 14.8634,-6.7342 4.3799,-2.2769 11.3549,-6.6672 15.5,-9.7562 4.1451,-3.089 10.9175,-9.1763 15.0498,-13.52747 4.1323,-4.35113 9.6584,-11.14217 12.2803,-15.09118 2.6218,-3.94902 6.8011,-11.47422 9.2873,-16.72266 2.4863,-5.24843 5.5876,-13.74973 6.892,-18.89176 1.3044,-5.14203 2.8751,-13.81684 3.4905,-19.27735 0.7571,-6.71819 1.0247,-34.98571 0.8277,-87.4282 l -0.2911,-77.5 -118.25,-0.2541 -118.25,-0.2541 0,82.37311 0,82.37311 1.5258,8.88099 c 0.8392,4.88454 2.7031,12.48099 4.142,16.88099 1.4388,4.4 4.533,11.825 6.8759,16.5 2.3429,4.675 6.0281,11.09198 8.1893,14.25996 2.1612,3.16799 6.4225,8.58208 9.4696,12.03133 3.0471,3.44925 8.7117,8.86613 12.5881,12.03743 3.8763,3.1713 10.7327,7.9808 15.2365,10.6876 4.5037,2.7069 11.8526,6.3351 16.3307,8.0628 4.4782,1.7276 11.5171,3.9888 15.6421,5.0248 4.125,1.036 11.325,2.289 16,2.7844 4.675,0.4954 12.55,0.6821 17.5,0.4149 z m 12.75,-42.42084 c -3.7125,-0.0647 -8.8113,-0.46648 -11.3306,-0.89287 -2.5193,-0.42639 -8.1443,-1.73961 -12.5,-2.91827 -4.3557,-1.17866 -12.8694,-4.5641 -18.9194,-7.5232 -6.8297,-3.34047 -14.2084,-7.97105 -19.4629,-12.21411 -4.6546,-3.75866 -11.4046,-10.25263 -15,-14.43103 -3.5954,-4.17841 -8.8968,-11.56845 -11.7809,-16.42232 -2.884,-4.85386 -6.6402,-12.4463 -8.3469,-16.87209 -1.7068,-4.42579 -3.912,-11.21075 -4.9006,-15.07769 -0.9885,-3.86694 -2.2936,-11.0808 -2.9002,-16.0308 -0.6066,-4.95 -1.1041,-14.0625 -1.1057,-20.25 l 0,-11.25 56.4865,0 56.4865,0 0.2635,-33.25 0.2635,-33.25 33.25,-0.26348 33.25,-0.26348 0,33.51348 0,33.51348 -33.5,0 -33.5,0 0,67 0,67 -6.75,-0.11762 z"
         id="path5879"
         inkscape:connector-curvature="0" />
      <path
         style="fill:#016486"
         d="m -1263.9341,1039.1176 c -6.325,-0.053 -15.264,-0.7269 -19.8644,-1.4981 -4.6003,-0.7712 -12.3455,-2.736 -17.2114,-4.3662 -4.866,-1.6303 -12.127,-4.6157 -16.1357,-6.6344 -4.0087,-2.0187 -10.6346,-5.9282 -14.7243,-8.6878 -4.0897,-2.7596 -11.0875,-8.5233 -15.5508,-12.8082 -4.4632,-4.2849 -10.7144,-11.40108 -13.8915,-15.81369 -3.1771,-4.4126 -7.9374,-12.42414 -10.5784,-17.80342 -2.6409,-5.37928 -5.7597,-12.71836 -6.9305,-16.30907 -1.1708,-3.59072 -2.8775,-9.89072 -3.7927,-14 l -1.664,-7.47144 -0.3743,-86.75 -0.3744,-86.75 122.0462,0 122.0462,0 0,84.30711 0,84.30711 -1.9455,10.44289 c -1.0701,5.74359 -3.0493,13.59289 -4.3984,17.44289 -1.3491,3.85 -3.6528,9.66631 -5.1193,12.92512 -1.4666,3.25882 -4.7252,9.10882 -7.2413,13 -2.5162,3.89119 -7.1802,10.22488 -10.3645,14.07488 -3.1842,3.85002 -8.2302,9.10632 -11.2133,11.68082 -2.9831,2.5744 -8.3711,6.741 -11.9733,9.2591 -3.6022,2.5181 -10.1969,6.404 -14.6551,8.6354 -4.4581,2.2314 -12.0394,5.3963 -16.8475,7.0333 -4.808,1.6369 -13.0168,3.6295 -18.2418,4.4279 -5.225,0.7984 -14.675,1.4085 -21,1.3558 z m 5,-3.4835 c 5.775,-0.2346 13.3634,-0.8906 16.863,-1.4577 3.4997,-0.5672 10.4747,-2.3485 15.5,-3.9585 5.0254,-1.61 13.0195,-4.9085 17.7647,-7.3301 4.7452,-2.4216 12.0701,-6.9487 16.2774,-10.0602 4.2074,-3.1115 10.2249,-8.2326 13.3723,-11.3802 3.1474,-3.14767 7.7877,-8.42282 10.3118,-11.72257 2.5241,-3.29975 6.455,-9.11024 8.7354,-12.91219 2.2804,-3.80196 5.7501,-11.05216 7.7105,-16.11157 1.9603,-5.05941 4.5331,-13.42373 5.7173,-18.58736 l 2.1529,-9.38843 0.3347,-84.75 0.3346,-84.75 -118.5373,0 -118.5373,0 0,82.82378 0,82.82379 1.6178,9.42621 c 0.8899,5.18442 2.9659,13.25122 4.6134,17.92622 1.6475,4.675 4.1249,10.75 5.5053,13.5 1.3803,2.75 4.8943,8.67431 7.8089,13.16514 2.9145,4.49083 8.5801,11.6192 12.5903,15.84083 4.0101,4.22165 10.8335,10.31275 15.163,13.53595 4.3295,3.2231 12.221,8.0851 17.5366,10.8043 5.3156,2.7193 13.2647,6.0693 17.6647,7.4445 4.4,1.3752 11.375,2.9985 15.5,3.6072 4.125,0.6088 8.85,1.2937 10.5,1.5221 1.65,0.2284 7.725,0.2234 13.5,-0.011 z m 15.75,-42.53076 c -2.8875,-0.0671 -7.9119,-0.51018 -11.1653,-0.98468 -3.2533,-0.47451 -9.3283,-1.79905 -13.5,-2.94343 -4.1716,-1.14438 -11.1031,-3.6053 -15.4033,-5.46872 -4.3002,-1.86342 -11.5485,-5.86989 -16.1074,-8.90326 -4.5589,-3.03338 -12.0655,-9.24918 -16.6814,-13.81289 -4.6159,-4.56371 -10.4753,-11.44033 -13.0208,-15.28137 -2.5456,-3.84104 -6.4194,-10.58371 -8.6085,-14.98371 -2.1892,-4.4 -5.1487,-11.6 -6.5768,-16 -1.428,-4.4 -3.3191,-11.825 -4.2023,-16.5 -0.8832,-4.675 -1.8713,-15.3625 -2.1957,-23.75 l -0.5898,-15.25 56.6506,0 56.6507,0 0,67 0,67 -5.25,-0.12194 z"
         id="path5877"
         inkscape:connector-curvature="0" />
    </g>
  </g>
</svg>
